<svg width="758" height="375" viewBox="0 0 758 375" fill="none" xmlns="http://www.w3.org/2000/svg">
<path d="M96.9568 41C96.9568 64.949 96.9568 83.3801 93.8748 103.563C90.7929 117.652 84.629 139.552 72.6528 172.216C60.6766 204.879 43.0748 247.644 24 290.552" stroke="#1600A2" stroke-width="5" stroke-linecap="round"/>
<path d="M95.9922 52.8803C97.2676 52.9369 98.5429 52.9936 100.322 54.3938C102.1 55.7941 104.344 58.5363 112.247 85.7544C120.15 112.972 133.646 164.583 141.633 197.676C151.691 243.778 158.082 271.589 166.634 298.603C170.927 311.211 175.128 321.584 181.393 331.087" stroke="#1600A2" stroke-width="5" stroke-linecap="round"/>
<path d="M57.8184 202.528H160.803" stroke="#1600A2" stroke-width="5" stroke-linecap="round"/>
<path d="M160.803 149.965H382.345" stroke="#1600A2" stroke-width="5" stroke-linecap="round"/>
<path d="M261.949 49.7264V332.026" stroke="#1600A2" stroke-width="5" stroke-linecap="round"/>
<path d="M300.433 260.32C300.665 260.32 325.605 260.32 363.077 258.622C375.83 258.045 375.463 253.53 374.015 250.714C366.99 237.05 331.391 225.709 308.018 218.502C303.532 217.119 298.027 217.613 294.232 218.443C278.683 221.841 272.178 253.095 270.71 286.842C270.038 302.308 280.622 311.741 288.522 319.285C297.389 327.752 316.635 332.247 353.363 334.409C360.601 333.909 362.92 332.531 364.793 331.03C366.665 329.528 368.022 327.946 369.419 324.877" stroke="#1600A2" stroke-width="5" stroke-linecap="round"/>
<path d="M413.049 76.1857C413.049 76.2474 413.049 76.309 412.865 106.754C412.681 137.2 412.312 198.027 411.308 236.325C410.304 274.623 408.675 288.55 407.621 296.621C406.567 304.693 406.137 306.488 405.915 309.126C405.693 311.763 405.693 315.188 405.693 318.717" stroke="#1600A2" stroke-width="5" stroke-linecap="round"/>
<path d="M461.527 215.758C461.527 215.799 461.527 215.839 461.462 228.975C461.397 242.111 461.266 268.342 460.666 284.213C460.066 300.083 459.001 304.797 457.408 310.084" stroke="#1600A2" stroke-width="5" stroke-linecap="round"/>
<path d="M460.862 194.208C460.739 194.208 461.698 193.358 464.057 192.121C465.289 191.475 467.014 191.838 468.414 192.342C469.814 192.845 470.945 193.745 471.553 195.323C472.16 196.9 472.208 199.126 471.431 200.488C470.653 201.849 469.047 202.278 467.41 202.053C464.001 201.584 461.684 199.092 460.111 196.976C458.315 194.558 457.825 191.01 457.958 188.719C458.147 185.486 459.554 195.718 459.639 197.544C459.689 198.619 460.824 194.396 462.51 193.321C464.2 192.242 466.558 194.501 468.092 196.295C468.836 197.165 468.932 198.377 468.747 199.472C468.563 200.567 467.948 201.617 467.392 201.561C466.835 201.505 466.357 200.312 466.11 198.95C465.863 197.588 465.863 196.092 467.792 196.481" stroke="#1600A2" stroke-width="5" stroke-linecap="round"/>
<path d="M520.143 312.6C520.143 312.107 521.037 311.045 523.01 309.968C523.984 309.435 525.32 309.989 526.02 310.721C527.45 312.217 526.981 315.16 526.457 317.378C525.457 321.612 518.413 319.33 516.129 318.496C513.881 317.676 514.355 313.48 514.83 310.763C515.034 309.6 516.541 309.343 517.713 309.357C518.886 309.371 520.031 309.782 520.788 310.818C522.496 313.156 522.149 316.603 521.461 318.954C521.143 320.039 519.678 320.345 518.902 319.998C518.126 319.652 517.773 318.5 517.877 317.264C517.98 316.028 518.551 314.742 519.399 314.091C520.246 313.44 521.353 313.463 522.442 314.101C523.531 314.739 524.569 315.993 525.104 317.494C525.639 318.996 525.639 320.708 524.896 321.097C519.794 323.772 517.627 313.57 517.337 311.386C517.192 310.297 518.045 309.227 518.752 309.188C523.089 308.953 522.141 317.386 521.866 319.523C521.661 321.112 520.473 314.999 520.882 312.15C521.078 310.778 522.107 309.746 523.092 309.44C524.076 309.135 525.203 309.637 525.784 310.905C526.364 312.173 526.364 314.191 525.907 314.403C525.45 314.615 524.535 312.959 523.593 310.788" stroke="#1600A2" stroke-width="5" stroke-linecap="round"/>
<path d="M570.393 267.148C570.393 267.328 584.569 267.511 606.243 266.459C613.82 266.091 614.134 262.94 614.336 259.54C615.194 245.109 610.101 235.619 603.542 228.241C599.894 224.137 591.266 223.853 580.719 225.604C568.308 227.664 561.506 236.168 558.367 240.461C550.509 251.209 552.461 274.95 556.911 290.665C559.212 298.794 565.951 303.405 569.691 306.435C579.515 309.972 590.321 311.1 605.209 310.37C608.362 309.226 610.302 306.797 609.634 304.021" stroke="#1600A2" stroke-width="5" stroke-linecap="round"/>
<path d="M637.121 209.963C637.121 246.51 637.121 317.682 637.586 311.706C638.767 296.523 642.155 285.983 649.598 274.905C659.115 260.74 681.682 242.631 698.589 233.989C705.139 231.94 713.413 230.992 722.307 231.369C726.051 231.891 728.23 233.086 733.9 236.297" stroke="#1600A2" stroke-width="5" stroke-linecap="round"/>
</svg>
