<svg width="1000" height="474" viewBox="0 0 1000 474" fill="none" xmlns="http://www.w3.org/2000/svg">
<path d="M203.957 83C203.957 106.949 203.957 125.38 200.875 145.563C197.793 159.652 191.629 181.552 179.653 214.216C167.677 246.879 150.075 289.644 131 332.552" stroke="#1600A2" stroke-width="5" stroke-linecap="round"/>
<path d="M202.992 94.8803C204.268 94.9369 205.543 94.9936 207.322 96.3938C209.1 97.7941 211.344 100.536 219.247 127.754C227.15 154.972 240.646 206.583 248.633 239.676C258.691 285.778 265.082 313.589 273.634 340.603C277.927 353.211 282.128 363.584 288.393 373.087" stroke="#1600A2" stroke-width="5" stroke-linecap="round"/>
<path d="M164.818 244.528H267.803" stroke="#1600A2" stroke-width="5" stroke-linecap="round"/>
<path d="M267.803 191.965H489.345" stroke="#1600A2" stroke-width="5" stroke-linecap="round"/>
<path d="M368.949 91.7264V374.026" stroke="#1600A2" stroke-width="5" stroke-linecap="round"/>
<path d="M407.433 302.32C407.665 302.32 432.605 302.32 470.077 300.622C482.83 300.045 482.463 295.53 481.015 292.714C473.99 279.05 438.391 267.709 415.018 260.502C410.532 259.119 405.027 259.613 401.232 260.443C385.683 263.841 379.178 295.095 377.71 328.842C377.038 344.308 387.622 353.741 395.522 361.285C404.389 369.752 423.635 374.247 460.363 376.409C467.601 375.909 469.92 374.531 471.793 373.03C473.665 371.528 475.022 369.946 476.419 366.877" stroke="#1600A2" stroke-width="5" stroke-linecap="round"/>
<path d="M520.049 118.186C520.049 118.247 520.049 118.309 519.865 148.754C519.681 179.2 519.312 240.027 518.308 278.325C517.304 316.623 515.675 330.55 514.621 338.621C513.567 346.693 513.137 348.488 512.915 351.126C512.693 353.763 512.693 357.188 512.693 360.717" stroke="#1600A2" stroke-width="5" stroke-linecap="round"/>
<path d="M568.527 257.758C568.527 257.799 568.527 257.839 568.462 270.975C568.397 284.111 568.266 310.342 567.666 326.213C567.066 342.083 566.001 346.797 564.408 352.084" stroke="#1600A2" stroke-width="5" stroke-linecap="round"/>
<path d="M567.862 236.208C567.739 236.208 568.698 235.358 571.057 234.121C572.289 233.475 574.014 233.838 575.414 234.342C576.814 234.845 577.945 235.745 578.553 237.323C579.16 238.9 579.208 241.126 578.431 242.488C577.653 243.849 576.047 244.278 574.41 244.053C571.001 243.584 568.684 241.092 567.111 238.976C565.315 236.558 564.825 233.01 564.958 230.719C565.147 227.486 566.554 237.718 566.639 239.544C566.689 240.619 567.824 236.396 569.51 235.321C571.2 234.242 573.558 236.501 575.092 238.295C575.836 239.165 575.932 240.377 575.747 241.472C575.563 242.567 574.948 243.617 574.392 243.561C573.835 243.505 573.357 242.312 573.11 240.95C572.863 239.588 572.863 238.092 574.792 238.481" stroke="#1600A2" stroke-width="5" stroke-linecap="round"/>
<path d="M627.143 354.6C627.143 354.107 628.037 353.045 630.01 351.968C630.984 351.435 632.32 351.989 633.02 352.721C634.45 354.217 633.981 357.16 633.457 359.378C632.457 363.612 625.413 361.33 623.129 360.496C620.881 359.676 621.355 355.48 621.83 352.763C622.034 351.6 623.541 351.343 624.713 351.357C625.886 351.371 627.031 351.782 627.788 352.818C629.496 355.156 629.149 358.603 628.461 360.954C628.143 362.039 626.678 362.345 625.902 361.998C625.126 361.652 624.773 360.5 624.877 359.264C624.98 358.028 625.551 356.742 626.399 356.091C627.246 355.44 628.353 355.463 629.442 356.101C630.531 356.739 631.569 357.993 632.104 359.494C632.639 360.996 632.639 362.708 631.896 363.097C626.794 365.772 624.627 355.57 624.337 353.386C624.192 352.297 625.045 351.227 625.752 351.188C630.089 350.953 629.141 359.386 628.866 361.523C628.661 363.112 627.473 356.999 627.882 354.15C628.078 352.778 629.107 351.746 630.092 351.44C631.076 351.135 632.203 351.637 632.784 352.905C633.364 354.173 633.364 356.191 632.907 356.403C632.45 356.615 631.535 354.959 630.593 352.788" stroke="#1600A2" stroke-width="5" stroke-linecap="round"/>
<path d="M677.393 309.148C677.393 309.328 691.569 309.511 713.243 308.459C720.82 308.091 721.134 304.94 721.336 301.54C722.194 287.109 717.101 277.619 710.542 270.241C706.894 266.137 698.266 265.853 687.719 267.604C675.308 269.664 668.506 278.168 665.367 282.461C657.509 293.209 659.461 316.95 663.911 332.665C666.212 340.794 672.951 345.405 676.691 348.435C686.515 351.972 697.321 353.1 712.209 352.37C715.362 351.226 717.302 348.797 716.634 346.021" stroke="#1600A2" stroke-width="5" stroke-linecap="round"/>
<path d="M744.121 251.963C744.121 288.51 744.121 359.682 744.586 353.706C745.767 338.523 749.155 327.983 756.598 316.905C766.115 302.74 788.682 284.631 805.589 275.989C812.139 273.94 820.413 272.992 829.307 273.369C833.051 273.891 835.23 275.086 840.9 278.297" stroke="#1600A2" stroke-width="5" stroke-linecap="round"/>
</svg>
